<?xml version="1.0" encoding="UTF-8" standalone="no"?>
<svg width="100%" height="100%" viewBox="0 0 334 386" version="1.1" xmlns="http://www.w3.org/2000/svg" style="fill-rule:evenodd;clip-rule:evenodd;stroke-linejoin:round;stroke-miterlimit:2;">
    <g transform="matrix(1,0,0,1,-534.783,-2041.07)">
        <g>
            <g transform="matrix(-1,0,0,1,1973.45,975.65)">
                <path d="M1271.9,1065.42L1271.9,1450.55L1105.14,1354.27L1105.14,1161.7L1271.9,1065.42Z"/>
            </g>
            <g transform="matrix(1,0,0,1,-570.354,975.65)">
                <path d="M1271.9,1065.42L1271.9,1450.55L1105.14,1354.27L1105.14,1161.7L1271.9,1065.42Z" style="fill:white;"/>
                <path d="M1271.9,1065.42L1271.9,1450.55L1105.14,1354.27L1105.14,1161.7L1271.9,1065.42ZM1115.55,1167.72L1115.55,1348.26L1261.49,1432.51L1261.49,1083.46L1115.55,1167.72Z"/>
            </g>
        </g>
    </g>
</svg>
