<?xml version="1.0" encoding="UTF-8" standalone="no"?>
<!DOCTYPE svg PUBLIC "-//W3C//DTD SVG 1.1//EN" "http://www.w3.org/Graphics/SVG/1.1/DTD/svg11.dtd">
<svg width="100%" height="100%" viewBox="0 0 334 386" version="1.1" xmlns="http://www.w3.org/2000/svg" style="fill-rule:evenodd;clip-rule:evenodd;stroke-linecap:round;stroke-linejoin:round;stroke-miterlimit:1.5;">
    <g transform="matrix(1,0,0,1,-261.242,-1749.17)">
        <g>
            <g transform="matrix(1,0,0,1,-843.894,683.751)">
                <path d="M1271.9,1065.42L1271.9,1450.55L1105.14,1354.27L1105.14,1161.7L1271.9,1065.42Z" style="fill:white;"/>
            </g>
            <g transform="matrix(-1,0,0,1,1699.91,683.751)">
                <path d="M1271.9,1065.42L1271.9,1450.55L1105.14,1354.27L1105.14,1161.7L1271.9,1065.42Z"/>
            </g>
            <g transform="matrix(100,0,0,100,295.976,1981.59)">
                <path d="M1.021,-0.71L1.021,-0.72L0.801,-0.72L0.801,-0.71C0.809,-0.709 0.818,-0.708 0.828,-0.706C0.838,-0.703 0.847,-0.7 0.856,-0.696C0.865,-0.691 0.872,-0.686 0.878,-0.68C0.884,-0.673 0.887,-0.665 0.887,-0.655C0.887,-0.648 0.886,-0.638 0.885,-0.624C0.884,-0.61 0.878,-0.588 0.869,-0.557C0.862,-0.533 0.854,-0.507 0.845,-0.48C0.836,-0.452 0.827,-0.424 0.818,-0.397C0.809,-0.369 0.8,-0.342 0.791,-0.315C0.782,-0.288 0.773,-0.264 0.766,-0.243C0.758,-0.221 0.752,-0.202 0.747,-0.188C0.741,-0.173 0.738,-0.163 0.736,-0.158C0.731,-0.171 0.724,-0.191 0.714,-0.22C0.703,-0.248 0.692,-0.28 0.679,-0.316C0.666,-0.351 0.653,-0.388 0.639,-0.427C0.625,-0.466 0.612,-0.501 0.601,-0.535C0.59,-0.568 0.58,-0.596 0.573,-0.619C0.566,-0.642 0.562,-0.655 0.562,-0.659C0.562,-0.669 0.566,-0.677 0.575,-0.684C0.583,-0.691 0.592,-0.696 0.603,-0.7C0.613,-0.703 0.623,-0.706 0.634,-0.707C0.644,-0.708 0.651,-0.709 0.655,-0.71L0.655,-0.72L0.342,-0.72L0.342,-0.709C0.358,-0.708 0.372,-0.706 0.383,-0.703C0.394,-0.699 0.404,-0.694 0.412,-0.689C0.419,-0.683 0.425,-0.677 0.43,-0.671C0.434,-0.665 0.437,-0.659 0.44,-0.654C0.449,-0.635 0.458,-0.615 0.466,-0.595C0.474,-0.574 0.483,-0.551 0.493,-0.524C0.478,-0.478 0.464,-0.434 0.449,-0.392C0.434,-0.349 0.421,-0.311 0.409,-0.278C0.397,-0.244 0.387,-0.216 0.379,-0.194C0.371,-0.171 0.366,-0.157 0.364,-0.152C0.357,-0.172 0.347,-0.198 0.335,-0.229C0.323,-0.26 0.31,-0.293 0.297,-0.329C0.283,-0.364 0.269,-0.4 0.256,-0.437C0.242,-0.474 0.229,-0.507 0.218,-0.539C0.207,-0.57 0.198,-0.596 0.191,-0.618C0.184,-0.639 0.18,-0.653 0.18,-0.659C0.18,-0.67 0.183,-0.679 0.19,-0.686C0.196,-0.693 0.203,-0.698 0.212,-0.701C0.221,-0.704 0.229,-0.707 0.237,-0.708C0.245,-0.709 0.251,-0.71 0.254,-0.71L0.254,-0.72L-0.028,-0.72L-0.028,-0.709C-0.013,-0.708 -0.001,-0.706 0.008,-0.702C0.017,-0.697 0.025,-0.692 0.032,-0.687C0.039,-0.681 0.044,-0.675 0.048,-0.669C0.051,-0.663 0.054,-0.658 0.056,-0.654C0.06,-0.646 0.064,-0.638 0.067,-0.631C0.07,-0.624 0.074,-0.616 0.077,-0.608C0.08,-0.6 0.083,-0.591 0.087,-0.582C0.09,-0.573 0.094,-0.562 0.099,-0.549C0.115,-0.507 0.131,-0.465 0.147,-0.423C0.163,-0.38 0.18,-0.337 0.197,-0.292C0.214,-0.247 0.231,-0.2 0.25,-0.151C0.268,-0.102 0.287,-0.051 0.308,0.003L0.32,0.003L0.364,-0.095C0.375,-0.126 0.387,-0.159 0.399,-0.193C0.411,-0.226 0.423,-0.26 0.435,-0.295C0.447,-0.33 0.459,-0.364 0.471,-0.398C0.483,-0.431 0.494,-0.463 0.505,-0.494C0.519,-0.457 0.533,-0.419 0.546,-0.381C0.559,-0.342 0.573,-0.303 0.588,-0.262C0.602,-0.221 0.617,-0.179 0.633,-0.135C0.648,-0.091 0.665,-0.045 0.683,0.003L0.693,0.003L0.735,-0.093C0.748,-0.131 0.761,-0.171 0.776,-0.214C0.791,-0.256 0.805,-0.298 0.82,-0.34C0.834,-0.382 0.848,-0.423 0.862,-0.463C0.876,-0.502 0.888,-0.538 0.899,-0.571C0.906,-0.59 0.912,-0.607 0.918,-0.62C0.924,-0.632 0.93,-0.643 0.935,-0.652C0.94,-0.66 0.945,-0.666 0.949,-0.671C0.953,-0.676 0.956,-0.679 0.958,-0.681C0.96,-0.684 0.967,-0.689 0.979,-0.696C0.99,-0.703 1.004,-0.708 1.021,-0.71Z" style="fill-rule:nonzero;"/>
            </g>
            <g transform="matrix(0.601843,0,0,0.601843,-208.652,1363.51)">
                <g transform="matrix(0.56294,0,0,0.56294,990.254,163.668)">
                    <g transform="matrix(1,0,0,1,0,-6)">
                        <path d="M424.897,1383.1L412.797,1383.1C413.095,1353.95 413.679,1332.24 413.679,1332.24C413.679,1332.24 540.502,1357.77 540.502,1532.18C540.502,1581.07 461.296,1575.75 420.595,1532.18C415.534,1526.76 413.519,1490.08 412.878,1449.56L424.897,1449.56" style="fill:none;stroke:white;stroke-width:14.8px;"/>
                    </g>
                    <g transform="matrix(-0.819597,0,0,1,826.16,810.022)">
                        <path d="M542.985,460.99L542.985,598.3C542.985,598.3 443.509,583.935 443.509,661.169" style="fill:none;stroke:white;stroke-width:16.19px;"/>
                    </g>
                </g>
                <g transform="matrix(-0.56294,0,0,0.56294,1402.55,163.668)">
                    <g transform="matrix(1,0,0,1,0,-6)">
                        <path d="M424.897,1383.1L412.797,1383.1C413.095,1353.95 413.679,1332.24 413.679,1332.24C413.679,1332.24 540.502,1357.77 540.502,1532.18C540.502,1581.07 461.296,1575.75 420.595,1532.18C415.534,1526.76 413.519,1490.08 412.878,1449.56L424.897,1449.56" style="fill:none;stroke:white;stroke-width:14.8px;"/>
                    </g>
                    <g transform="matrix(-0.819597,0,0,1,826.16,810.022)">
                        <path d="M542.985,460.99L542.985,598.3C542.985,598.3 443.509,583.935 443.509,661.169" style="fill:none;stroke:white;stroke-width:16.19px;"/>
                    </g>
                </g>
            </g>
        </g>
    </g>
</svg>
